<svg width="13" height="12" viewBox="0 0 13 12" fill="none" xmlns="http://www.w3.org/2000/svg">
<path d="M5.10183 3.65844C6.054 3.65844 6.82915 2.83712 6.82915 1.82823C6.82915 0.819348 6.05213 0 5.10183 0C4.15153 0 3.37451 0.821322 3.37451 1.83021C3.37451 2.83909 4.14966 3.66041 5.10183 3.66041V3.65844Z" fill="#6D23F9"/>
<path d="M5.85645 5.29114C5.85645 6.30003 6.6316 7.12135 7.58376 7.12135C8.53593 7.12135 9.31108 6.30003 9.31108 5.29114C9.31108 4.28226 8.53593 3.46094 7.58376 3.46094C6.6316 3.46094 5.85645 4.28226 5.85645 5.29114Z" fill="#6D23F9"/>
<path d="M10.2483 6.92188C9.29615 6.92188 8.521 7.7432 8.521 8.75208C8.521 9.76096 9.29615 10.5823 10.2483 10.5823C11.2005 10.5823 11.9756 9.76096 11.9756 8.75208C11.9756 7.7432 11.2005 6.92188 10.2483 6.92188Z" fill="#6D23F9"/>
<path d="M3.28323 7.78297C4.23539 7.78297 5.01054 6.96165 5.01054 5.95276C5.01054 4.94388 4.23539 4.12256 3.28323 4.12256C2.33106 4.12256 1.55591 4.94388 1.55591 5.95276C1.55591 6.96165 2.33106 7.78297 3.28323 7.78297Z" fill="#6D23F9"/>
<path d="M5.94973 7.58545C4.99756 7.58545 4.22241 8.40677 4.22241 9.41566C4.22241 10.4245 4.99756 11.2459 5.94973 11.2459C6.9019 11.2459 7.67705 10.4245 7.67705 9.41566C7.67705 8.40677 6.9019 7.58545 5.94973 7.58545Z" fill="#6D23F9"/>
<path d="M1.72732 8.33936C0.77515 8.33936 0 9.16068 0 10.1696C0 11.1784 0.77515 11.9998 1.72732 11.9998C2.67949 11.9998 3.45464 11.1784 3.45464 10.1696C3.45464 9.16068 2.67949 8.33936 1.72732 8.33936Z" fill="#6D23F9"/>
<path d="M12.9633 3.26356C12.9112 3.11549 12.8068 2.999 12.6689 2.93385C12.5329 2.8687 12.3801 2.86475 12.2422 2.92003C11.754 3.11549 10.8894 1.71964 10.4832 0.631779C10.3696 0.327732 10.0453 0.179657 9.75839 0.298117C9.47144 0.418551 9.33168 0.762085 9.44349 1.06613C9.49752 1.20828 9.68758 1.69989 9.98944 2.25073C9.83106 2.33365 9.69317 2.43829 9.57951 2.56662C9.37827 2.79367 9.15653 3.20038 9.2292 3.85784C9.26274 4.15596 9.50125 4.38103 9.78448 4.38103C9.80684 4.38103 9.8292 4.38103 9.84969 4.37709C10.1553 4.33957 10.3752 4.04342 10.3398 3.71963C10.3211 3.55774 10.3398 3.43928 10.3938 3.37807C10.4422 3.32082 10.5391 3.27738 10.6602 3.25369C11.3068 4.02566 11.9832 4.29022 12.6391 4.02566C12.9279 3.90917 13.0733 3.56761 12.9633 3.26159V3.26356Z" fill="#6D23F9"/>
</svg>
