<svg width="114" height="81" viewBox="0 0 114 81" fill="none" xmlns="http://www.w3.org/2000/svg">
<path d="M16.25 55.75H8.75C8.5375 55.75 8.35938 55.678 8.21563 55.5341C8.07188 55.3902 8 55.2118 8 54.999C8 54.7862 8.07188 54.6082 8.21563 54.4649C8.35938 54.3216 8.5375 54.25 8.75 54.25H16.25V46.75C16.25 46.5375 16.322 46.3594 16.4659 46.2156C16.6098 46.0719 16.7882 46 17.001 46C17.2138 46 17.3918 46.0719 17.5351 46.2156C17.6784 46.3594 17.75 46.5375 17.75 46.75V54.25H25.25C25.4625 54.25 25.6406 54.322 25.7844 54.4659C25.9281 54.6098 26 54.7882 26 55.001C26 55.2138 25.9281 55.3918 25.7844 55.5351C25.6406 55.6784 25.4625 55.75 25.25 55.75H17.75V63.25C17.75 63.4625 17.678 63.6406 17.5341 63.7844C17.3902 63.9281 17.2118 64 16.999 64C16.7862 64 16.6082 63.9281 16.4649 63.7844C16.3216 63.6406 16.25 63.4625 16.25 63.25V55.75Z" fill="#CAC4CF"/>
<path d="M7.45881 80V71.2727H8.77557V78.8665H12.7301V80H7.45881ZM14.13 80V73.4545H15.4041V80H14.13ZM14.7734 72.4446C14.5518 72.4446 14.3615 72.3707 14.2024 72.223C14.0462 72.0724 13.968 71.8935 13.968 71.6861C13.968 71.4759 14.0462 71.2969 14.2024 71.1491C14.3615 70.9986 14.5518 70.9233 14.7734 70.9233C14.995 70.9233 15.1839 70.9986 15.3402 71.1491C15.4993 71.2969 15.5788 71.4759 15.5788 71.6861C15.5788 71.8935 15.4993 72.0724 15.3402 72.223C15.1839 72.3707 14.995 72.4446 14.7734 72.4446ZM22.0231 75.0526L20.8683 75.2571C20.82 75.1094 20.7433 74.9687 20.6381 74.8352C20.5359 74.7017 20.3967 74.5923 20.2205 74.5071C20.0444 74.4219 19.8242 74.3793 19.56 74.3793C19.1992 74.3793 18.8981 74.4602 18.6566 74.6222C18.4151 74.7812 18.2944 74.9872 18.2944 75.2401C18.2944 75.4588 18.3754 75.6349 18.5373 75.7685C18.6992 75.902 18.9606 76.0114 19.3214 76.0966L20.3612 76.3352C20.9634 76.4744 21.4123 76.6889 21.7077 76.9787C22.0032 77.2685 22.1509 77.6449 22.1509 78.108C22.1509 78.5 22.0373 78.8494 21.81 79.1562C21.5856 79.4602 21.2717 79.6989 20.8683 79.8722C20.4677 80.0455 20.0032 80.1321 19.4748 80.1321C18.7418 80.1321 18.1438 79.9759 17.6808 79.6634C17.2177 79.348 16.9336 78.9006 16.8285 78.321L18.06 78.1335C18.1367 78.4545 18.2944 78.6974 18.533 78.8622C18.7717 79.0241 19.0827 79.1051 19.4663 79.1051C19.8839 79.1051 20.2177 79.0185 20.4677 78.8452C20.7177 78.669 20.8427 78.4545 20.8427 78.2017C20.8427 77.9972 20.766 77.8253 20.6126 77.6861C20.462 77.5469 20.2305 77.4418 19.918 77.3707L18.81 77.1278C18.1992 76.9886 17.7475 76.767 17.4549 76.4631C17.1651 76.1591 17.0202 75.7741 17.0202 75.3082C17.0202 74.9219 17.1282 74.5838 17.3441 74.294C17.56 74.0043 17.8583 73.7784 18.239 73.6165C18.6197 73.4517 19.0558 73.3693 19.5472 73.3693C20.2546 73.3693 20.8114 73.5227 21.2177 73.8295C21.6239 74.1335 21.8924 74.5412 22.0231 75.0526ZM26.6072 73.4545V74.4773H23.032V73.4545H26.6072ZM23.9908 71.8864H25.2649V78.0781C25.2649 78.3253 25.3018 78.5114 25.3757 78.6364C25.4496 78.7585 25.5447 78.8423 25.6612 78.8878C25.7805 78.9304 25.9098 78.9517 26.049 78.9517C26.1513 78.9517 26.2408 78.9446 26.3175 78.9304C26.3942 78.9162 26.4538 78.9048 26.4964 78.8963L26.7266 79.9489C26.6527 79.9773 26.5476 80.0057 26.4112 80.0341C26.2749 80.0653 26.1044 80.0824 25.8999 80.0852C25.5646 80.0909 25.2521 80.0312 24.9624 79.9062C24.6726 79.7812 24.4382 79.5881 24.2592 79.3267C24.0803 79.0653 23.9908 78.7372 23.9908 78.3423V71.8864Z" fill="#CAC4CF"/>
<path d="M65.6923 51.5001C66.1679 51.5001 66.5881 51.6825 66.9528 52.0473C67.3176 52.412 67.5 52.8322 67.5 53.3078V54.9232C67.5 55.0281 67.4865 55.1406 67.4596 55.2606C67.4326 55.3805 67.4025 55.4924 67.3692 55.5963L64.5034 62.3589C64.3601 62.6787 64.1198 62.9488 63.7827 63.1693C63.4455 63.3898 63.0937 63.5001 62.7272 63.5001H52.2115V51.5001L58.0288 45.7329C58.2275 45.5341 58.4577 45.4156 58.7192 45.3771C58.9807 45.3386 59.2314 45.3835 59.4711 45.5117C59.7108 45.6399 59.8865 45.822 59.998 46.0578C60.1096 46.2937 60.1333 46.538 60.0692 46.7905L58.9923 51.5001H65.6923ZM53.7115 52.1386V62.0001H62.7307C62.8012 62.0001 62.8734 61.9809 62.9471 61.9424C63.0208 61.9039 63.0769 61.8398 63.1154 61.7501L66 55.0001V53.3078C66 53.2181 65.9711 53.1444 65.9134 53.0867C65.8557 53.029 65.782 53.0001 65.6923 53.0001H57.0961L58.35 47.5193L53.7115 52.1386ZM49.3077 63.5001C48.8106 63.5001 48.385 63.3231 48.031 62.9691C47.677 62.6151 47.5 62.1895 47.5 61.6924V53.3078C47.5 52.8107 47.677 52.3852 48.031 52.0312C48.385 51.6771 48.8106 51.5001 49.3077 51.5001H52.2115V53.0001H49.3077C49.218 53.0001 49.1442 53.029 49.0865 53.0867C49.0288 53.1444 49 53.2181 49 53.3078V61.6924C49 61.7821 49.0288 61.8559 49.0865 61.9136C49.1442 61.9713 49.218 62.0001 49.3077 62.0001H52.2115V63.5001H49.3077Z" fill="#CAC4CF"/>
<path d="M44.4588 80V71.2727H47.5696C48.2457 71.2727 48.8068 71.3892 49.2528 71.6222C49.7017 71.8551 50.0369 72.1776 50.2585 72.5895C50.4801 72.9986 50.5909 73.4716 50.5909 74.0085C50.5909 74.5426 50.4787 75.0128 50.2543 75.419C50.0327 75.8224 49.6974 76.1364 49.2486 76.3608C48.8026 76.5852 48.2415 76.6974 47.5653 76.6974H45.2088V75.5639H47.446C47.8722 75.5639 48.2188 75.5028 48.4858 75.3807C48.7557 75.2585 48.9531 75.081 49.0781 74.848C49.2031 74.6151 49.2656 74.3352 49.2656 74.0085C49.2656 73.679 49.2017 73.3935 49.0739 73.152C48.9489 72.9105 48.7514 72.7259 48.4815 72.598C48.2145 72.4673 47.8636 72.402 47.429 72.402H45.7756V80H44.4588ZM48.767 76.0625L50.9233 80H49.4233L47.3097 76.0625H48.767ZM53.9957 80.1449C53.581 80.1449 53.206 80.0682 52.8707 79.9148C52.5355 79.7585 52.2699 79.5327 52.0739 79.2372C51.8807 78.9418 51.7841 78.5795 51.7841 78.1506C51.7841 77.7812 51.8551 77.4773 51.9972 77.2386C52.1392 77 52.331 76.8111 52.5724 76.6719C52.8139 76.5327 53.0838 76.4276 53.3821 76.3565C53.6804 76.2855 53.9844 76.2315 54.294 76.1946C54.6861 76.1491 55.0043 76.1122 55.2486 76.0838C55.4929 76.0526 55.6705 76.0028 55.7812 75.9347C55.892 75.8665 55.9474 75.7557 55.9474 75.6023V75.5724C55.9474 75.2003 55.8423 74.9119 55.6321 74.7074C55.4247 74.5028 55.1151 74.4006 54.7031 74.4006C54.2741 74.4006 53.9361 74.4957 53.6889 74.6861C53.4446 74.8736 53.2756 75.0824 53.1818 75.3125L51.9844 75.0398C52.1264 74.642 52.3338 74.321 52.6065 74.0767C52.8821 73.8295 53.1989 73.6506 53.5568 73.5398C53.9148 73.4261 54.2912 73.3693 54.6861 73.3693C54.9474 73.3693 55.2244 73.4006 55.517 73.4631C55.8125 73.5227 56.0881 73.6335 56.3438 73.7955C56.6023 73.9574 56.8139 74.1889 56.9787 74.4901C57.1435 74.7884 57.2259 75.1761 57.2259 75.6534V80H55.9815V79.1051H55.9304C55.848 79.2699 55.7244 79.4318 55.5597 79.5909C55.3949 79.75 55.1832 79.8821 54.9247 79.9872C54.6662 80.0923 54.3565 80.1449 53.9957 80.1449ZM54.2727 79.1222C54.625 79.1222 54.9261 79.0526 55.1761 78.9134C55.429 78.7741 55.6207 78.5923 55.7514 78.3679C55.8849 78.1406 55.9517 77.8977 55.9517 77.6392V76.7955C55.9063 76.8409 55.8182 76.8835 55.6875 76.9233C55.5597 76.9602 55.4134 76.9929 55.2486 77.0213C55.0838 77.0469 54.9233 77.071 54.767 77.0938C54.6108 77.1136 54.4801 77.1307 54.375 77.1449C54.1278 77.1761 53.902 77.2287 53.6974 77.3026C53.4957 77.3764 53.3338 77.483 53.2116 77.6222C53.0923 77.7585 53.0327 77.9403 53.0327 78.1676C53.0327 78.483 53.1491 78.7216 53.3821 78.8835C53.6151 79.0426 53.9119 79.1222 54.2727 79.1222ZM61.9783 73.4545V74.4773H58.4031V73.4545H61.9783ZM59.3619 71.8864H60.636V78.0781C60.636 78.3253 60.6729 78.5114 60.7468 78.6364C60.8207 78.7585 60.9158 78.8423 61.0323 78.8878C61.1516 78.9304 61.2809 78.9517 61.4201 78.9517C61.5224 78.9517 61.6119 78.9446 61.6886 78.9304C61.7653 78.9162 61.8249 78.9048 61.8675 78.8963L62.0977 79.9489C62.0238 79.9773 61.9187 80.0057 61.7823 80.0341C61.646 80.0653 61.4755 80.0824 61.271 80.0852C60.9357 80.0909 60.6232 80.0312 60.3335 79.9062C60.0437 79.7812 59.8093 79.5881 59.6303 79.3267C59.4513 79.0653 59.3619 78.7372 59.3619 78.3423V71.8864ZM66.1385 80.1321C65.4936 80.1321 64.9382 79.9943 64.4723 79.7188C64.0092 79.4403 63.6513 79.0497 63.3984 78.5469C63.1484 78.0412 63.0234 77.4489 63.0234 76.7699C63.0234 76.0994 63.1484 75.5085 63.3984 74.9972C63.6513 74.4858 64.0036 74.0866 64.4553 73.7997C64.9098 73.5128 65.4411 73.3693 66.049 73.3693C66.4183 73.3693 66.7763 73.4304 67.1229 73.5526C67.4695 73.6747 67.7805 73.8665 68.0561 74.1278C68.3317 74.3892 68.549 74.7287 68.7081 75.1463C68.8672 75.5611 68.9467 76.0653 68.9467 76.6591V77.1108H63.7436V76.1562H67.6982C67.6982 75.821 67.63 75.5241 67.4936 75.2656C67.3572 75.0043 67.1655 74.7983 66.9183 74.6477C66.674 74.4972 66.3871 74.4219 66.0575 74.4219C65.6996 74.4219 65.3871 74.5099 65.12 74.6861C64.8558 74.8594 64.6513 75.0866 64.5064 75.3679C64.3643 75.6463 64.2933 75.9489 64.2933 76.2756V77.0213C64.2933 77.4588 64.37 77.831 64.5234 78.1378C64.6797 78.4446 64.897 78.679 65.1754 78.8409C65.4538 79 65.7791 79.0795 66.1513 79.0795C66.3928 79.0795 66.6129 79.0455 66.8118 78.9773C67.0107 78.9062 67.1825 78.8011 67.3274 78.6619C67.4723 78.5227 67.5831 78.3509 67.6598 78.1463L68.8658 78.3636C68.7692 78.7187 68.5959 79.0298 68.3459 79.2969C68.0987 79.5611 67.7876 79.767 67.4126 79.9148C67.0405 80.0597 66.6158 80.1321 66.1385 80.1321Z" fill="#CAC4CF"/>
<path d="M105.364 56.0237L89.4433 62.5166C89.0997 62.6496 88.7732 62.6209 88.464 62.4307C88.1547 62.2404 88 61.9642 88 61.6021V48.5952C88 48.2331 88.1547 47.9569 88.464 47.7666C88.7732 47.5764 89.0997 47.5477 89.4433 47.6807L105.364 54.1735C105.788 54.3546 106 54.663 106 55.0986C106 55.5343 105.788 55.8427 105.364 56.0237ZM89.7109 60.6155L103.227 55.0986L89.7109 49.5818V53.6558L93.8091 54.6117C94.3243 54.7319 94.3243 55.4654 93.8091 55.5856L89.7109 56.5415V60.6155Z" fill="#CAC4CF"/>
<path d="M85.7188 73.5653C85.6733 73.1619 85.4858 72.8494 85.1562 72.6278C84.8267 72.4034 84.4119 72.2912 83.9119 72.2912C83.554 72.2912 83.2443 72.348 82.983 72.4616C82.7216 72.5724 82.5185 72.7259 82.3736 72.9219C82.2315 73.1151 82.1605 73.3352 82.1605 73.5824C82.1605 73.7898 82.2088 73.9687 82.3054 74.1193C82.4048 74.2699 82.5341 74.3963 82.6932 74.4986C82.8551 74.598 83.0284 74.6818 83.2131 74.75C83.3977 74.8153 83.5753 74.8693 83.7457 74.9119L84.598 75.1335C84.8764 75.2017 85.1619 75.294 85.4545 75.4105C85.7472 75.527 86.0185 75.6804 86.2685 75.8707C86.5185 76.0611 86.7202 76.2969 86.8736 76.5781C87.0298 76.8594 87.108 77.196 87.108 77.5881C87.108 78.0824 86.9801 78.5213 86.7244 78.9048C86.4716 79.2884 86.1037 79.5909 85.6207 79.8125C85.1406 80.0341 84.5597 80.1449 83.8778 80.1449C83.2244 80.1449 82.6591 80.0412 82.1818 79.8338C81.7045 79.6264 81.331 79.3324 81.0611 78.9517C80.7912 78.5682 80.642 78.1136 80.6136 77.5881H81.9347C81.9602 77.9034 82.0625 78.1662 82.2415 78.3764C82.4233 78.5838 82.6548 78.7386 82.9361 78.8409C83.2202 78.9403 83.5312 78.9901 83.8693 78.9901C84.2415 78.9901 84.5724 78.9318 84.8622 78.8153C85.1548 78.696 85.3849 78.5312 85.5526 78.321C85.7202 78.108 85.804 77.8594 85.804 77.5753C85.804 77.3168 85.7301 77.1051 85.5824 76.9403C85.4375 76.7756 85.2401 76.6392 84.9901 76.5312C84.7429 76.4233 84.4631 76.3281 84.1506 76.2457L83.1193 75.9645C82.4205 75.7741 81.8665 75.4943 81.4574 75.125C81.0511 74.7557 80.848 74.267 80.848 73.6591C80.848 73.1562 80.9844 72.7173 81.2571 72.3423C81.5298 71.9673 81.8991 71.6761 82.3651 71.4688C82.831 71.2585 83.3565 71.1534 83.9418 71.1534C84.5327 71.1534 85.054 71.2571 85.5057 71.4645C85.9602 71.6719 86.3182 71.9574 86.5795 72.321C86.8409 72.6818 86.9773 73.0966 86.9886 73.5653H85.7188ZM89.8533 76.1136V80H88.5792V71.2727H89.8363V74.5199H89.9173C90.0707 74.1676 90.305 73.8878 90.6204 73.6804C90.9357 73.473 91.3477 73.3693 91.8562 73.3693C92.305 73.3693 92.6971 73.4616 93.0323 73.6463C93.3704 73.831 93.6317 74.1065 93.8164 74.473C94.0039 74.8366 94.0977 75.2912 94.0977 75.8366V80H92.8235V75.9901C92.8235 75.5099 92.6999 75.1378 92.4528 74.8736C92.2056 74.6065 91.8619 74.473 91.4215 74.473C91.1204 74.473 90.8505 74.5369 90.6119 74.6648C90.3761 74.7926 90.19 74.9801 90.0536 75.2273C89.9201 75.4716 89.8533 75.767 89.8533 76.1136ZM97.7028 80.1449C97.288 80.1449 96.913 80.0682 96.5778 79.9148C96.2425 79.7585 95.9769 79.5327 95.7809 79.2372C95.5877 78.9418 95.4911 78.5795 95.4911 78.1506C95.4911 77.7812 95.5621 77.4773 95.7042 77.2386C95.8462 77 96.038 76.8111 96.2795 76.6719C96.521 76.5327 96.7908 76.4276 97.0891 76.3565C97.3874 76.2855 97.6914 76.2315 98.0011 76.1946C98.3931 76.1491 98.7113 76.1122 98.9556 76.0838C99.1999 76.0526 99.3775 76.0028 99.4883 75.9347C99.5991 75.8665 99.6545 75.7557 99.6545 75.6023V75.5724C99.6545 75.2003 99.5494 74.9119 99.3391 74.7074C99.1317 74.5028 98.8221 74.4006 98.4102 74.4006C97.9812 74.4006 97.6431 74.4957 97.396 74.6861C97.1516 74.8736 96.9826 75.0824 96.8888 75.3125L95.6914 75.0398C95.8335 74.642 96.0408 74.321 96.3136 74.0767C96.5891 73.8295 96.9059 73.6506 97.2638 73.5398C97.6218 73.4261 97.9982 73.3693 98.3931 73.3693C98.6545 73.3693 98.9315 73.4006 99.2241 73.4631C99.5195 73.5227 99.7951 73.6335 100.051 73.7955C100.309 73.9574 100.521 74.1889 100.686 74.4901C100.85 74.7884 100.933 75.1761 100.933 75.6534V80H99.6886V79.1051H99.6374C99.555 79.2699 99.4315 79.4318 99.2667 79.5909C99.1019 79.75 98.8903 79.8821 98.6317 79.9872C98.3732 80.0923 98.0636 80.1449 97.7028 80.1449ZM97.9798 79.1222C98.332 79.1222 98.6332 79.0526 98.8832 78.9134C99.136 78.7741 99.3278 78.5923 99.4585 78.3679C99.592 78.1406 99.6587 77.8977 99.6587 77.6392V76.7955C99.6133 76.8409 99.5252 76.8835 99.3945 76.9233C99.2667 76.9602 99.1204 76.9929 98.9556 77.0213C98.7908 77.0469 98.6303 77.071 98.4741 77.0938C98.3178 77.1136 98.1871 77.1307 98.082 77.1449C97.8349 77.1761 97.609 77.2287 97.4045 77.3026C97.2028 77.3764 97.0408 77.483 96.9187 77.6222C96.7994 77.7585 96.7397 77.9403 96.7397 78.1676C96.7397 78.483 96.8562 78.7216 97.0891 78.8835C97.3221 79.0426 97.619 79.1222 97.9798 79.1222ZM102.63 80V73.4545H103.862V74.4943H103.93C104.049 74.142 104.259 73.8651 104.56 73.6634C104.864 73.4588 105.208 73.3565 105.592 73.3565C105.671 73.3565 105.765 73.3594 105.873 73.3651C105.984 73.3707 106.07 73.3778 106.133 73.3864V74.6051C106.082 74.5909 105.991 74.5753 105.86 74.5582C105.729 74.5384 105.599 74.5284 105.468 74.5284C105.167 74.5284 104.898 74.5923 104.663 74.7202C104.43 74.8452 104.245 75.0199 104.109 75.2443C103.972 75.4659 103.904 75.7187 103.904 76.0028V80H102.63ZM109.822 80.1321C109.177 80.1321 108.622 79.9943 108.156 79.7188C107.693 79.4403 107.335 79.0497 107.082 78.5469C106.832 78.0412 106.707 77.4489 106.707 76.7699C106.707 76.0994 106.832 75.5085 107.082 74.9972C107.335 74.4858 107.687 74.0866 108.139 73.7997C108.593 73.5128 109.125 73.3693 109.733 73.3693C110.102 73.3693 110.46 73.4304 110.806 73.5526C111.153 73.6747 111.464 73.8665 111.74 74.1278C112.015 74.3892 112.233 74.7287 112.392 75.1463C112.551 75.5611 112.63 76.0653 112.63 76.6591V77.1108H107.427V76.1562H111.382C111.382 75.821 111.314 75.5241 111.177 75.2656C111.041 75.0043 110.849 74.7983 110.602 74.6477C110.358 74.4972 110.071 74.4219 109.741 74.4219C109.383 74.4219 109.071 74.5099 108.804 74.6861C108.539 74.8594 108.335 75.0866 108.19 75.3679C108.048 75.6463 107.977 75.9489 107.977 76.2756V77.0213C107.977 77.4588 108.054 77.831 108.207 78.1378C108.363 78.4446 108.581 78.679 108.859 78.8409C109.137 79 109.463 79.0795 109.835 79.0795C110.076 79.0795 110.297 79.0455 110.495 78.9773C110.694 78.9062 110.866 78.8011 111.011 78.6619C111.156 78.5227 111.267 78.3509 111.343 78.1463L112.549 78.3636C112.453 78.7187 112.279 79.0298 112.029 79.2969C111.782 79.5611 111.471 79.767 111.096 79.9148C110.724 80.0597 110.299 80.1321 109.822 80.1321Z" fill="#CAC4CF"/>
</svg>
