<svg width="228" height="26" viewBox="0 0 228 26" fill="none" xmlns="http://www.w3.org/2000/svg">
<rect x="61.75" y="0.75" width="40.5" height="24.5" rx="7.25" fill="white"/>
<rect x="61.75" y="0.75" width="40.5" height="24.5" rx="7.25" stroke="#6D23F9" stroke-width="1.5"/>
<path d="M70.1186 18V7.81818H73.7479C74.5367 7.81818 75.1913 7.95407 75.7116 8.22585C76.2353 8.49763 76.6264 8.87382 76.8849 9.3544C77.1435 9.83168 77.2727 10.3835 77.2727 11.0099C77.2727 11.633 77.1418 12.1816 76.88 12.6555C76.6214 13.1262 76.2304 13.4924 75.7067 13.7543C75.1863 14.0161 74.5317 14.147 73.7429 14.147H70.9936V12.8246H73.6037C74.1009 12.8246 74.5052 12.7533 74.8168 12.6108C75.1316 12.4683 75.362 12.2611 75.5078 11.9893C75.6536 11.7176 75.7266 11.3911 75.7266 11.0099C75.7266 10.6255 75.652 10.2924 75.5028 10.0107C75.357 9.72893 75.1267 9.51349 74.8118 9.36435C74.5002 9.21188 74.0909 9.13565 73.5838 9.13565H71.6548V18H70.1186ZM75.1449 13.4062L77.6605 18H75.9105L73.4446 13.4062H75.1449ZM82.2182 18.1541C81.4658 18.1541 80.8179 17.9934 80.2743 17.6719C79.7341 17.3471 79.3165 16.8913 79.0215 16.3047C78.7298 15.7147 78.584 15.0237 78.584 14.2315C78.584 13.4493 78.7298 12.7599 79.0215 12.1634C79.3165 11.5668 79.7275 11.1011 80.2544 10.7663C80.7847 10.4316 81.4045 10.2642 82.1138 10.2642C82.5447 10.2642 82.9623 10.3355 83.3667 10.478C83.771 10.6205 84.1339 10.8442 84.4554 11.1491C84.7769 11.4541 85.0305 11.8501 85.2161 12.3374C85.4017 12.8213 85.4945 13.4096 85.4945 14.1023V14.6293H79.4242V13.5156H84.0378C84.0378 13.1245 83.9583 12.7782 83.7992 12.4766C83.6401 12.1716 83.4164 11.9313 83.128 11.7557C82.843 11.58 82.5082 11.4922 82.1238 11.4922C81.7061 11.4922 81.3416 11.5949 81.03 11.8004C80.7218 12.0026 80.4831 12.2678 80.3141 12.5959C80.1484 12.9207 80.0655 13.2737 80.0655 13.6548V14.5249C80.0655 15.0353 80.155 15.4695 80.334 15.8274C80.5163 16.1854 80.7698 16.4588 81.0946 16.6477C81.4194 16.8333 81.7989 16.9261 82.2331 16.9261C82.5149 16.9261 82.7717 16.8864 83.0037 16.8068C83.2357 16.724 83.4363 16.6013 83.6053 16.4389C83.7743 16.2765 83.9036 16.076 83.9931 15.8374L85.4 16.0909C85.2873 16.5052 85.0852 16.8681 84.7935 17.1797C84.5051 17.4879 84.1422 17.7282 83.7047 17.9006C83.2705 18.0696 82.775 18.1541 82.2182 18.1541ZM90.0025 18.1491C89.386 18.1491 88.8358 17.9917 88.3519 17.6768C87.8713 17.3587 87.4935 16.9062 87.2184 16.3196C86.9466 15.7296 86.8107 15.022 86.8107 14.1967C86.8107 13.3714 86.9483 12.6655 87.2234 12.0788C87.5018 11.4922 87.8829 11.0431 88.3668 10.7315C88.8507 10.42 89.3993 10.2642 90.0124 10.2642C90.4864 10.2642 90.8675 10.3438 91.1559 10.5028C91.4476 10.6586 91.6729 10.8409 91.832 11.0497C91.9944 11.2585 92.1204 11.4425 92.2099 11.6016H92.2994V7.81818H93.7859V18H92.3342V16.8118H92.2099C92.1204 16.9742 91.9911 17.1598 91.8221 17.3686C91.6564 17.5774 91.4277 17.7597 91.136 17.9155C90.8443 18.0713 90.4665 18.1491 90.0025 18.1491ZM90.3306 16.8814C90.7582 16.8814 91.1194 16.7687 91.4144 16.5433C91.7127 16.3146 91.9381 15.9981 92.0906 15.5938C92.2463 15.1894 92.3242 14.7187 92.3242 14.1818C92.3242 13.6515 92.248 13.1875 92.0955 12.7898C91.9431 12.392 91.7193 12.0821 91.4244 11.8601C91.1294 11.638 90.7648 11.527 90.3306 11.527C89.8832 11.527 89.5103 11.643 89.212 11.875C88.9137 12.107 88.6883 12.4235 88.5359 12.8246C88.3867 13.2256 88.3121 13.678 88.3121 14.1818C88.3121 14.6922 88.3884 15.1513 88.5408 15.5589C88.6933 15.9666 88.9187 16.2898 89.217 16.5284C89.5186 16.7637 89.8898 16.8814 90.3306 16.8814Z" fill="#6D23F9"/>
<rect x="109.75" y="0.75" width="49.5" height="24.5" rx="7.25" fill="white"/>
<rect x="109.75" y="0.75" width="49.5" height="24.5" rx="7.25" stroke="#6D23F9" stroke-width="1.5"/>
<path d="M121.842 7.81818V18H120.301V9.35938H120.241L117.805 10.9503V9.47869L120.346 7.81818H121.842ZM124.383 16.0114V14.7685L128.783 7.81818H129.762V9.64773H129.141L125.994 14.6293V14.7088H132.024V16.0114H124.383ZM129.21 18V15.6335L129.22 15.0668V7.81818H130.677V18H129.21ZM134.373 18.0945C134.101 18.0945 133.868 17.9983 133.672 17.8061C133.477 17.6106 133.379 17.3752 133.379 17.1001C133.379 16.8284 133.477 16.5964 133.672 16.4041C133.868 16.2086 134.101 16.1108 134.373 16.1108C134.645 16.1108 134.879 16.2086 135.074 16.4041C135.27 16.5964 135.368 16.8284 135.368 17.1001C135.368 17.2824 135.321 17.4498 135.228 17.6023C135.139 17.7514 135.02 17.8707 134.87 17.9602C134.721 18.0497 134.556 18.0945 134.373 18.0945ZM140.536 18.1392C139.912 18.1392 139.352 18.0199 138.855 17.7812C138.361 17.5393 137.967 17.2079 137.672 16.7869C137.377 16.366 137.219 15.8854 137.2 15.3452H138.691C138.728 15.7827 138.921 16.1423 139.273 16.424C139.624 16.7057 140.045 16.8466 140.536 16.8466C140.927 16.8466 141.273 16.7571 141.575 16.5781C141.879 16.3958 142.118 16.1456 142.29 15.8274C142.466 15.5092 142.554 15.1463 142.554 14.7386C142.554 14.3243 142.464 13.9548 142.286 13.63C142.107 13.3052 141.86 13.05 141.545 12.8643C141.233 12.6787 140.875 12.5843 140.471 12.581C140.163 12.581 139.853 12.634 139.541 12.7401C139.23 12.8461 138.978 12.9853 138.786 13.1577L137.379 12.9489L137.95 7.81818H143.548V9.13565H139.228L138.905 11.9844H138.964C139.163 11.7921 139.427 11.6314 139.755 11.5021C140.086 11.3729 140.441 11.3082 140.819 11.3082C141.439 11.3082 141.991 11.4557 142.474 11.7507C142.962 12.0457 143.344 12.4484 143.623 12.9588C143.905 13.4659 144.044 14.0492 144.04 14.7088C144.044 15.3684 143.895 15.9567 143.593 16.4737C143.295 16.9908 142.88 17.3984 142.35 17.6967C141.823 17.9917 141.218 18.1392 140.536 18.1392ZM145.712 10.8608V10.3288C145.712 9.85488 145.808 9.43561 146.001 9.07102C146.196 8.70644 146.473 8.41974 146.831 8.21094C147.192 8.00213 147.616 7.89773 148.104 7.89773C148.846 7.89773 149.429 8.12642 149.854 8.58381C150.281 9.03788 150.495 9.61955 150.495 10.3288V10.8608C150.495 11.3314 150.399 11.7474 150.206 12.1087C150.014 12.4699 149.741 12.755 149.386 12.9638C149.032 13.1693 148.611 13.272 148.123 13.272C147.378 13.272 146.789 13.0466 146.358 12.5959C145.928 12.1451 145.712 11.5668 145.712 10.8608ZM146.915 10.3288V10.8608C146.915 11.2685 147.016 11.6065 147.219 11.875C147.421 12.1402 147.722 12.2727 148.123 12.2727C148.515 12.2727 148.806 12.1402 148.998 11.875C149.191 11.6065 149.287 11.2685 149.287 10.8608V10.3288C149.287 9.93111 149.189 9.59635 148.993 9.32457C148.801 9.04948 148.505 8.91193 148.104 8.91193C147.712 8.91193 147.416 9.04948 147.214 9.32457C147.015 9.59635 146.915 9.93111 146.915 10.3288Z" fill="#6D23F9"/>
<g clip-path="url(#clip0_958_1198)">
<path d="M176.436 18V16.8864L179.882 13.3168C180.25 12.929 180.553 12.5893 180.792 12.2976C181.033 12.0026 181.214 11.7225 181.333 11.4574C181.453 11.1922 181.512 10.9105 181.512 10.6122C181.512 10.2741 181.433 9.98248 181.274 9.73722C181.115 9.48864 180.898 9.29806 180.623 9.16548C180.347 9.02959 180.038 8.96165 179.693 8.96165C179.328 8.96165 179.01 9.03622 178.738 9.18537C178.467 9.33452 178.258 9.54498 178.112 9.81676C177.966 10.0885 177.893 10.4067 177.893 10.7713H176.426C176.426 10.1515 176.569 9.60961 176.854 9.1456C177.139 8.68158 177.53 8.32197 178.027 8.06676C178.525 7.80824 179.09 7.67898 179.723 7.67898C180.362 7.67898 180.926 7.80658 181.413 8.06179C181.904 8.31368 182.286 8.65838 182.561 9.09588C182.837 9.53007 182.974 10.0206 182.974 10.5675C182.974 10.9453 182.903 11.3149 182.76 11.6761C182.621 12.0374 182.377 12.4401 182.029 12.8842C181.681 13.325 181.198 13.8603 180.578 14.4901L178.554 16.608V16.6825H183.138V18H176.436ZM188.567 18.169C187.782 18.1657 187.11 17.9586 186.554 17.5476C185.997 17.1366 185.571 16.5384 185.276 15.7528C184.981 14.9673 184.833 14.0211 184.833 12.9141C184.833 11.8104 184.981 10.8674 185.276 10.0852C185.574 9.30303 186.002 8.70644 186.559 8.29545C187.119 7.88447 187.788 7.67898 188.567 7.67898C189.346 7.67898 190.014 7.88613 190.571 8.30043C191.127 8.71141 191.553 9.308 191.848 10.0902C192.147 10.8691 192.296 11.8104 192.296 12.9141C192.296 14.0244 192.148 14.9723 191.853 15.7578C191.558 16.54 191.132 17.1383 190.576 17.5526C190.019 17.9635 189.349 18.169 188.567 18.169ZM188.567 16.8416C189.257 16.8416 189.795 16.5052 190.183 15.8324C190.574 15.1596 190.77 14.1868 190.77 12.9141C190.77 12.0689 190.68 11.3546 190.501 10.7713C190.325 10.1847 190.072 9.74053 189.74 9.43892C189.412 9.134 189.021 8.98153 188.567 8.98153C187.881 8.98153 187.342 9.3196 186.951 9.99574C186.56 10.6719 186.363 11.6446 186.36 12.9141C186.36 13.7625 186.448 14.4801 186.623 15.0668C186.802 15.6501 187.056 16.0926 187.384 16.3942C187.712 16.6925 188.106 16.8416 188.567 16.8416ZM197.922 7.81818V18H196.381V9.35938H196.322L193.885 10.9503V9.47869L196.426 7.81818H197.922ZM204.117 18.1392C203.404 18.1392 202.775 18.0166 202.228 17.7713C201.684 17.526 201.258 17.188 200.95 16.7571C200.642 16.3262 200.489 15.8357 200.493 15.2855C200.489 14.8546 200.577 14.4586 200.756 14.0973C200.939 13.7327 201.185 13.4295 201.497 13.1875C201.809 12.9422 202.157 12.7865 202.541 12.7202V12.6605C202.034 12.5379 201.628 12.2661 201.323 11.8452C201.018 11.4242 200.867 10.9403 200.871 10.3935C200.867 9.87311 201.005 9.40909 201.283 9.00142C201.565 8.59044 201.951 8.26728 202.442 8.03196C202.932 7.79664 203.491 7.67898 204.117 7.67898C204.737 7.67898 205.29 7.7983 205.778 8.03693C206.268 8.27225 206.654 8.59541 206.936 9.00639C207.218 9.41406 207.36 9.87642 207.363 10.3935C207.36 10.9403 207.204 11.4242 206.896 11.8452C206.588 12.2661 206.187 12.5379 205.693 12.6605V12.7202C206.074 12.7865 206.417 12.9422 206.722 13.1875C207.03 13.4295 207.276 13.7327 207.458 14.0973C207.644 14.4586 207.738 14.8546 207.741 15.2855C207.738 15.8357 207.582 16.3262 207.274 16.7571C206.966 17.188 206.538 17.526 205.991 17.7713C205.448 18.0166 204.823 18.1392 204.117 18.1392ZM204.117 16.8814C204.538 16.8814 204.903 16.8118 205.211 16.6726C205.519 16.5301 205.758 16.3329 205.927 16.081C206.096 15.8258 206.182 15.5275 206.185 15.1861C206.182 14.8314 206.089 14.5182 205.907 14.2464C205.728 13.9747 205.484 13.7609 205.176 13.6051C204.868 13.4493 204.515 13.3714 204.117 13.3714C203.716 13.3714 203.36 13.4493 203.048 13.6051C202.737 13.7609 202.491 13.9747 202.312 14.2464C202.133 14.5182 202.046 14.8314 202.049 15.1861C202.046 15.5275 202.127 15.8258 202.292 16.081C202.461 16.3329 202.702 16.5301 203.013 16.6726C203.325 16.8118 203.693 16.8814 204.117 16.8814ZM204.117 12.1435C204.455 12.1435 204.755 12.0755 205.017 11.9396C205.279 11.8037 205.484 11.6148 205.633 11.3729C205.786 11.1309 205.864 10.8475 205.867 10.5227C205.864 10.2045 205.787 9.92614 205.638 9.6875C205.492 9.44886 205.289 9.26491 205.027 9.13565C204.765 9.00308 204.462 8.93679 204.117 8.93679C203.766 8.93679 203.457 9.00308 203.192 9.13565C202.93 9.26491 202.727 9.44886 202.581 9.6875C202.435 9.92614 202.364 10.2045 202.367 10.5227C202.364 10.8475 202.437 11.1309 202.586 11.3729C202.735 11.6148 202.94 11.8037 203.202 11.9396C203.467 12.0755 203.772 12.1435 204.117 12.1435Z" fill="#6D23F9"/>
<path d="M214.25 11.5L218 15.25L221.75 11.5H214.25Z" fill="#6D23F9"/>
</g>
<rect x="166.75" y="0.75" width="60.5" height="24.5" rx="7.25" stroke="#6D23F9" stroke-width="1.5"/>
<defs>
<clipPath id="clip0_958_1198">
<rect x="166" width="62" height="26" rx="8" fill="white"/>
</clipPath>
</defs>
</svg>
